<svg width="358" height="122" viewBox="0 0 358 122" fill="none" xmlns="http://www.w3.org/2000/svg">
<path d="M121 62.672C121 66.932 119.33 70.8 116.615 73.68C116.149 79.758 112.298 84.888 106.93 87.201V87.258C100.375 91.075 96.456 97.591 95.263 105.407H89.202V87.275C89.242 81.623 91.02 78.004 94.746 75.771C96.109 74.987 97.348 74.09 98.404 73.096C101.17 74.09 103.618 76.038 105.175 78.81C105.499 79.355 106.078 79.662 106.652 79.662C106.93 79.662 107.22 79.594 107.481 79.44C108.311 78.985 108.606 77.952 108.14 77.134H108.129C106.385 74.032 103.733 71.743 100.722 70.38C102.267 68.005 103.125 65.177 103.085 61.78C103.085 61.763 103.108 61.746 103.108 61.723C103.108 60.189 102.881 58.696 102.472 57.292C106.011 56.616 109.129 54.821 111.424 52.292C112.06 51.594 112.014 50.52 111.31 49.895C110.611 49.265 109.555 49.321 108.93 50.003C106.93 52.179 104.232 53.667 101.165 54.076C98.7 49.509 94.116 46.266 88.743 45.675C89.101 42.778 90.407 40.194 92.372 38.228C93.02 37.569 93.02 36.494 92.372 35.841C91.713 35.176 90.622 35.176 89.964 35.841C87.448 38.359 85.766 41.721 85.346 45.465C79.035 44.67 74.173 39.313 74.162 32.791C74.162 31.865 73.395 31.093 72.486 31.093C71.526 31.093 70.776 31.865 70.776 32.791C70.776 33.893 70.884 34.944 71.094 35.978C68.702 38.047 65.726 39.092 62.744 39.092C61.273 39.092 59.796 38.831 58.405 38.325C58.405 38.325 58.382 38.319 58.365 38.314C56.65 37.695 55.076 36.71 53.713 35.347C53.06 34.688 51.981 34.688 51.316 35.347C50.651 36.006 50.651 37.076 51.316 37.74C52.713 39.132 54.287 40.211 55.962 40.989C55.627 45.209 53.173 48.839 49.742 50.878C47.76 47.867 44.778 45.482 41.114 44.317C40.199 44.033 39.251 44.527 38.961 45.419C38.711 46.311 39.166 47.26 40.069 47.538C42.79 48.401 44.977 50.077 46.55 52.213C45.494 52.497 44.409 52.65 43.256 52.65C43.256 52.65 43.256 52.65 43.238 52.65H43.05C38.699 52.65 34.7 54.383 31.792 57.218C31.104 57.871 31.088 58.945 31.764 59.61C32.087 59.951 32.531 60.121 32.991 60.121C33.378 60.121 33.803 59.962 34.133 59.644C36.44 57.394 39.586 56.037 43.051 56.037H43.233H43.238H43.256C51.412 56.037 58.189 49.963 59.251 42.091C60.41 42.341 61.568 42.477 62.744 42.477C66.056 42.477 69.396 41.449 72.207 39.415C73.235 41.761 74.86 43.811 76.831 45.402C74.82 47.879 73.639 50.821 73.327 53.831C72.48 53.695 71.589 53.621 70.697 53.621C68.141 53.621 65.545 54.228 63.131 55.519C62.302 55.957 61.989 56.984 62.427 57.814C62.734 58.376 63.33 58.706 63.938 58.706C64.216 58.706 64.466 58.644 64.71 58.501C66.653 57.484 68.687 57.001 70.697 57.001C71.594 57.001 72.48 57.098 73.327 57.279C73.696 60.71 75.179 64.067 77.729 66.737C78.07 67.09 78.507 67.26 78.945 67.26C79.36 67.26 79.791 67.106 80.127 66.794C80.82 66.141 80.837 65.078 80.178 64.402H80.167C77.9 62.005 76.702 58.961 76.623 55.882C76.623 55.836 76.634 55.802 76.623 55.751C76.623 55.689 76.623 55.626 76.623 55.563C76.623 52.574 77.657 49.62 79.702 47.246C81.855 48.32 84.308 48.945 86.905 48.945C86.905 48.945 86.916 48.95 86.933 48.95C86.933 48.95 86.944 48.95 86.961 48.95C93.993 48.973 99.685 54.655 99.713 61.686C98.379 61.334 97.004 61.152 95.595 61.152C93.579 61.152 91.534 61.521 89.563 62.334C88.688 62.692 88.273 63.674 88.626 64.538C88.983 65.401 89.955 65.822 90.824 65.47C92.403 64.84 94.011 64.533 95.595 64.533C96.873 64.533 98.14 64.726 99.327 65.095C98.912 66.992 98.1 68.514 96.839 69.866C96.742 69.951 96.651 70.048 96.578 70.161C95.612 71.11 94.453 71.984 93.022 72.853C88.12 75.716 85.768 80.908 85.819 87.271V105.403H80.036V88.161C80.036 81.828 76.066 75.822 71.067 73.686C68.681 72.76 66.193 71.209 64.381 69.181C61.797 70.936 58.695 71.97 55.36 71.97C52.014 71.97 48.913 70.953 46.346 69.21C43.79 70.891 40.705 71.874 37.406 71.874C28.333 71.875 21 64.524 21 55.464C21 48.692 25.095 42.881 30.958 40.381C32.543 33.154 38.944 27.747 46.646 27.747C47.055 27.747 47.43 27.781 47.811 27.804C50.714 23.561 55.593 20.777 61.12 20.777C63.858 20.777 66.426 21.459 68.681 22.674C71.225 20.982 74.269 20 77.546 20C81.755 20 85.589 21.642 88.463 24.306C89.667 24.016 90.911 23.846 92.212 23.846C98.716 23.846 104.339 27.76 106.85 33.366C113.451 35.366 118.256 41.49 118.256 48.738C118.256 50.192 118.063 51.595 117.705 52.93C119.762 55.635 121 59.009 121 62.672Z" fill="#72641C"/>
<path d="M334 108H134V113H334V108Z" fill="#FF5722"/>
<path d="M134 31.2456H148.233L153.963 52.9955L159.755 31.2456H172.447L172.386 95.7566H163.945V48.4363L153.963 85.8985L144.043 48.4363V95.7566H135.54V33.0938L134 31.2456ZM177.376 33.156L175.836 31.2459H200.05V40.981H183.353L185.879 42.891V58.6027H195.861V68.3993H183.353L185.879 70.2477V86.0209H200.051V95.756H177.377V86.0209V68.3991V58.6026L177.376 33.156ZM202.022 31.2456H216.255L221.985 52.9955L227.777 31.2456H240.469L240.408 95.7566H231.967V48.4363L221.985 85.8985L212.065 48.4363V95.7566H203.563V33.0938L202.022 31.2456ZM252.546 86.0208H262.527V40.9819H250.081L252.546 42.8919V86.0208ZM270.968 37.3453V89.6569C270.968 93.1072 268.318 95.7568 264.868 95.7568H250.204C246.753 95.7568 244.104 93.1075 244.104 89.6569V37.3453C244.104 34.0798 246.753 31.2454 250.204 31.2454H264.868C268.318 31.2454 270.968 34.0796 270.968 37.3453ZM283.23 58.4188H293.15V40.7355H280.703L283.23 42.6456V58.4188ZM301.592 37.161V62.0528C301.592 65.5031 298.942 68.1527 295.492 68.1527H294.321L301.592 95.5701H292.842L285.572 68.1527H280.704L283.231 70.0628V95.5722H274.728V40.735V32.91L273.188 31L295.492 31.0616C298.942 31.0616 301.592 33.7104 301.592 37.161ZM301.776 31.1834H311.634L318.473 58.5409L325.251 31.1834H334L322.786 76.038L322.663 76.5926V95.7546H314.222V76.531L314.099 76.0381L303.378 33.0938L301.776 31.1834Z" fill="#EEEEEE"/>
</svg>
